<svg xmlns="http://www.w3.org/2000/svg" id="export" class="graph" preserveAspectRatio="xMidYMid meet" style="position: absolute; margin: 0px;" width="259" height="692"><rect id="background" fill="#fff" pointer-events="all" width="259" height="692"/><g id="origin" transform="translate(11.766406250000001, 11.766406250000001) scale(1)"><g id="clusters" class="clusters"/><g id="edge-paths" class="edge-paths"><defs><marker id="arrowhead-vee" viewBox="0 0 10 10" refX="9" refY="5" markerUnits="strokeWidth" markerWidth="8" markerHeight="6" orient="auto" style="fill: rgb(0, 0, 0);"><path d="M 0 0 L 10 5 L 0 10 L 4 5 z" style="stroke-width: 1; stroke-dasharray: 1, 0;"/></marker></defs><path class="edge-path" d="M113.2109375,22L113.2109375,26.5C113.2109375,31,113.2109375,40,113.2109375,49C113.2109375,58,113.2109375,67,113.2109375,71.5L113.2109375,76" marker-end="url(#arrowhead-vee)" id="edge-pnet/input" style="stroke: rgb(0, 0, 0); stroke-width: 1px; fill: none;"/><path class="edge-path" d="M87.89276315789473,117L82.33511513157895,121.5C76.77746710526316,126,65.66217105263158,135,60.10452302631578,145.83333333333334C54.546875,156.66666666666666,54.546875,169.33333333333334,54.546875,182C54.546875,194.66666666666666,54.546875,207.33333333333334,54.546875,221.58333333333334C54.546875,235.83333333333334,54.546875,251.66666666666666,54.546875,267.5C54.546875,283.3333333333333,54.546875,299.1666666666667,54.546875,313.4166666666667C54.546875,327.6666666666667,54.546875,340.3333333333333,54.546875,353C54.546875,365.6666666666667,54.546875,378.3333333333333,54.546875,391C54.546875,403.6666666666667,54.546875,416.3333333333333,54.546875,429C54.546875,441.6666666666667,54.546875,454.3333333333333,54.546875,465.1666666666667C54.546875,476,54.546875,485,54.546875,489.5L54.546875,494" marker-end="url(#arrowhead-vee)" id="edge-pnet/conv1/BiasAdd" style="stroke: rgb(0, 0, 0); stroke-width: 1px; fill: none;"/><path class="edge-path" d="M138.52911184210527,117L144.08675986842107,121.5C149.64440789473684,126,160.75970394736842,135,166.31735197368423,144C171.875,153,171.875,162,171.875,166.5L171.875,171" marker-end="url(#arrowhead-vee)" id="edge-pnet/conv1/BiasAdd" style="stroke: rgb(0, 0, 0); stroke-width: 1px; fill: none;"/><path class="edge-path" d="M54.546875,516L54.546875,520.5C54.546875,525,54.546875,534,61.49393503289474,543C68.44099506578948,552,82.33511513157895,561,89.28217516447368,565.5L96.22923519736842,570" marker-end="url(#arrowhead-vee)" id="edge-pnet/PReLU1/Relu" style="stroke: rgb(0, 0, 0); stroke-width: 1px; fill: none;"/><path class="edge-path" d="M171.875,193L171.875,197.5C171.875,202,171.875,211,171.875,220C171.875,229,171.875,238,171.875,242.5L171.875,247" marker-end="url(#arrowhead-vee)" id="edge-pnet/PReLU1/MaxPool_1" style="stroke: rgb(0, 0, 0); stroke-width: 1px; fill: none;"/><path class="edge-path" d="M171.875,288L171.875,292.5C171.875,297,171.875,306,171.875,315C171.875,324,171.875,333,171.875,337.5L171.875,342" marker-end="url(#arrowhead-vee)" id="edge-pnet/PReLU1/Relu_1" style="stroke: rgb(0, 0, 0); stroke-width: 1px; fill: none;"/><path class="edge-path" d="M171.875,364L171.875,368.5C171.875,373,171.875,382,171.875,391C171.875,400,171.875,409,171.875,413.5L171.875,418" marker-end="url(#arrowhead-vee)" id="edge-pnet/PReLU1/MaxPool_2" style="stroke: rgb(0, 0, 0); stroke-width: 1px; fill: none;"/><path class="edge-path" d="M171.875,440L171.875,444.5C171.875,449,171.875,458,171.875,467C171.875,476,171.875,485,171.875,489.5L171.875,494" marker-end="url(#arrowhead-vee)" id="edge-pnet/PReLU1/Mul_1" style="stroke: rgb(0, 0, 0); stroke-width: 1px; fill: none;"/><path class="edge-path" d="M171.875,516L171.875,520.5C171.875,525,171.875,534,164.92793996710526,543C157.98087993421052,552,144.08675986842107,561,137.13969983552633,565.5L130.1926398026316,570" marker-end="url(#arrowhead-vee)" id="edge-pnet/PReLU1/Mul_2" style="stroke: rgb(0, 0, 0); stroke-width: 1px; fill: none;"/><path class="edge-path" d="M113.2109375,592L113.2109375,596.5C113.2109375,601,113.2109375,610,113.2109375,619C113.2109375,628,113.2109375,637,113.2109375,641.5L113.2109375,646" marker-end="url(#arrowhead-vee)" id="edge-pnet/PReLU1/Add" style="stroke: rgb(0, 0, 0); stroke-width: 1px; fill: none;"/></g><g id="edge-labels" class="edge-labels"><g class="edge-label" transform="translate(144.078125,49)" style="opacity: 1;"><g transform="translate(-25.8671875,-7)"><text style="font-family: &quot;Open Sans&quot;, &quot;--apple-system&quot;, &quot;Helvetica Neue&quot;, Helvetica, Arial, sans-serf; font-size: 10px;"><tspan xml:space="preserve" dy="1em" x="1">1×28×38×3</tspan></text></g></g><g class="edge-label" transform="translate(88.2734375,315)" style="opacity: 1;"><g transform="translate(-28.7265625,-7)"><text style="font-family: &quot;Open Sans&quot;, &quot;--apple-system&quot;, &quot;Helvetica Neue&quot;, Helvetica, Arial, sans-serf; font-size: 10px;"><tspan xml:space="preserve" dy="1em" x="1">1×26×36×10</tspan></text></g></g><g class="edge-label" transform="translate(205.6015625,144)" style="opacity: 1;"><g transform="translate(-28.7265625,-7)"><text style="font-family: &quot;Open Sans&quot;, &quot;--apple-system&quot;, &quot;Helvetica Neue&quot;, Helvetica, Arial, sans-serf; font-size: 10px;"><tspan xml:space="preserve" dy="1em" x="1">1×26×36×10</tspan></text></g></g><g class="edge-label" transform="translate(88.2734375,543)" style="opacity: 1;"><g transform="translate(-28.7265625,-7)"><text style="font-family: &quot;Open Sans&quot;, &quot;--apple-system&quot;, &quot;Helvetica Neue&quot;, Helvetica, Arial, sans-serf; font-size: 10px;"><tspan xml:space="preserve" dy="1em" x="1">1×26×36×10</tspan></text></g></g><g class="edge-label" transform="translate(205.6015625,220)" style="opacity: 1;"><g transform="translate(-28.7265625,-7)"><text style="font-family: &quot;Open Sans&quot;, &quot;--apple-system&quot;, &quot;Helvetica Neue&quot;, Helvetica, Arial, sans-serf; font-size: 10px;"><tspan xml:space="preserve" dy="1em" x="1">1×26×36×10</tspan></text></g></g><g class="edge-label" transform="translate(205.6015625,315)" style="opacity: 1;"><g transform="translate(-28.7265625,-7)"><text style="font-family: &quot;Open Sans&quot;, &quot;--apple-system&quot;, &quot;Helvetica Neue&quot;, Helvetica, Arial, sans-serf; font-size: 10px;"><tspan xml:space="preserve" dy="1em" x="1">1×26×36×10</tspan></text></g></g><g class="edge-label" transform="translate(205.6015625,391)" style="opacity: 1;"><g transform="translate(-28.7265625,-7)"><text style="font-family: &quot;Open Sans&quot;, &quot;--apple-system&quot;, &quot;Helvetica Neue&quot;, Helvetica, Arial, sans-serf; font-size: 10px;"><tspan xml:space="preserve" dy="1em" x="1">1×26×36×10</tspan></text></g></g><g class="edge-label" transform="translate(205.6015625,467)" style="opacity: 1;"><g transform="translate(-28.7265625,-7)"><text style="font-family: &quot;Open Sans&quot;, &quot;--apple-system&quot;, &quot;Helvetica Neue&quot;, Helvetica, Arial, sans-serf; font-size: 10px;"><tspan xml:space="preserve" dy="1em" x="1">1×26×36×10</tspan></text></g></g><g class="edge-label" transform="translate(205.6015625,543)" style="opacity: 1;"><g transform="translate(-28.7265625,-7)"><text style="font-family: &quot;Open Sans&quot;, &quot;--apple-system&quot;, &quot;Helvetica Neue&quot;, Helvetica, Arial, sans-serf; font-size: 10px;"><tspan xml:space="preserve" dy="1em" x="1">1×26×36×10</tspan></text></g></g><g class="edge-label" transform="translate(146.9375,619)" style="opacity: 1;"><g transform="translate(-28.7265625,-7)"><text style="font-family: &quot;Open Sans&quot;, &quot;--apple-system&quot;, &quot;Helvetica Neue&quot;, Helvetica, Arial, sans-serf; font-size: 10px;"><tspan xml:space="preserve" dy="1em" x="1">1×26×36×10</tspan></text></g></g></g><g id="nodes" class="nodes"><g id="node-1544945772331" class="node" transform="translate(113.2109375,96.5)" style="opacity: 1;"><g transform="translate(-88.953125,-20.5)"><g><g class="node-item node-item-operator node-item-operator-layer" transform="translate(0,0)"><path d="M5,0h46.84375a0,0 0 0 1 0,0v22a0,0 0 0 1 0,0h-51.84375a0,0 0 0 1 0,0v-17a5,5 0 0 1 5,-5z" style="stroke: rgb(0, 0, 0); fill: rgb(51, 85, 136); stroke-width: 0;"/><text x="7" y="15" style="font-family: &quot;Open Sans&quot;, &quot;--apple-system&quot;, &quot;Helvetica Neue&quot;, Helvetica, Arial, sans-serf; font-size: 10px; font-weight: 600; text-rendering: geometricPrecision; fill: rgb(255, 255, 255);">Conv2D</text></g><g class="node-item node-item-input" transform="translate(51.84375,0)"><path d="M0,0h39.703125a0,0 0 0 1 0,0v22a0,0 0 0 1 0,0h-39.703125a0,0 0 0 1 0,0v-22a0,0 0 0 1 0,0z" style="stroke: rgb(0, 0, 0); fill: rgb(255, 255, 255); stroke-width: 0;"/><text x="7" y="15" style="font-family: &quot;Open Sans&quot;, &quot;--apple-system&quot;, &quot;Helvetica Neue&quot;, Helvetica, Arial, sans-serf; font-size: 10px; font-weight: 600; text-rendering: geometricPrecision;">input</text><title>float32[1,28,38,3]</title></g><g class="node-item node-item-constant" id="initializer-pnet/conv1/weights" transform="translate(91.546875,0)"><path d="M0,0h52.546875a0,0 0 0 1 0,0v22a0,0 0 0 1 0,0h-52.546875a0,0 0 0 1 0,0v-22a0,0 0 0 1 0,0z" style="stroke: rgb(0, 0, 0); fill: rgb(238, 238, 238); stroke-width: 0;"/><text x="7" y="15" style="font-family: &quot;Open Sans&quot;, &quot;--apple-system&quot;, &quot;Helvetica Neue&quot;, Helvetica, Arial, sans-serf; font-size: 10px; font-weight: 600; text-rendering: geometricPrecision;">weights</text><title>float32[10,3,3,3]</title></g><g class="node-item node-item-constant" id="initializer-pnet/conv1/Conv2D_bias" transform="translate(144.09375,0)"><path d="M0,0h28.8125a5,5 0 0 1 5,5v17a0,0 0 0 1 0,0h-33.8125a0,0 0 0 1 0,0v-22a0,0 0 0 1 0,0z" style="stroke: rgb(0, 0, 0); fill: rgb(238, 238, 238); stroke-width: 0;"/><text x="7" y="15" style="font-family: &quot;Open Sans&quot;, &quot;--apple-system&quot;, &quot;Helvetica Neue&quot;, Helvetica, Arial, sans-serf; font-size: 10px; font-weight: 600; text-rendering: geometricPrecision;">bias</text><title>float32[10]</title></g><g class="node-attribute" transform="translate(0,22)"><path d="M0,0h177.90625a0,0 0 0 1 0,0v14a5,5 0 0 1 -5,5h-167.90625a5,5 0 0 1 -5,-5v-14a0,0 0 0 1 0,0z" style="stroke: rgb(0, 0, 0); fill: rgb(255, 255, 255); stroke-width: 0;"/><text xml:space="preserve" x="4" y="12" style="font-family: &quot;Open Sans&quot;, &quot;--apple-system&quot;, &quot;Helvetica Neue&quot;, Helvetica, Arial, sans-serf; font-size: 7px; font-weight: normal; text-rendering: geometricPrecision;"><title>Padding</title><tspan style="font-weight: bold;">padding</tspan><tspan> = VALID</tspan></text></g><line class="node" x1="51.84375" y1="0" x2="51.84375" y2="22" style="stroke: rgb(51, 51, 51); fill: none; stroke-width: 1px;"/><line class="node" x1="91.546875" y1="0" x2="91.546875" y2="22" style="stroke: rgb(51, 51, 51); fill: none; stroke-width: 1px;"/><line class="node" x1="144.09375" y1="0" x2="144.09375" y2="22" style="stroke: rgb(51, 51, 51); fill: none; stroke-width: 1px;"/><line class="node" x1="0" y1="22" x2="177.90625" y2="22" style="stroke: rgb(51, 51, 51); fill: none; stroke-width: 1px;"/><path class="node border" d="M5,0h167.90625a5,5 0 0 1 5,5v31a5,5 0 0 1 -5,5h-167.90625a5,5 0 0 1 -5,-5v-31a5,5 0 0 1 5,-5z" style="stroke: rgb(51, 51, 51); fill: none; stroke-width: 1px;"/></g></g></g><g id="node-1544945772332" class="node" transform="translate(54.546875,505)" style="opacity: 1;"><g transform="translate(-54.546875,-11)"><g><g class="node-item node-item-operator node-item-operator-pool" transform="translate(0,0)"><path d="M5,0h64.390625a0,0 0 0 1 0,0v22a0,0 0 0 1 0,0h-64.390625a5,5 0 0 1 -5,-5v-12a5,5 0 0 1 5,-5z" style="stroke: rgb(0, 0, 0); fill: rgb(51, 85, 51); stroke-width: 0;"/><text x="7" y="15" style="font-family: &quot;Open Sans&quot;, &quot;--apple-system&quot;, &quot;Helvetica Neue&quot;, Helvetica, Arial, sans-serf; font-size: 10px; font-weight: 600; text-rendering: geometricPrecision; fill: rgb(255, 255, 255);">MaxPool2D</text></g><g class="node-item node-item-input" transform="translate(69.390625,0)"><path d="M0,0h34.703125a5,5 0 0 1 5,5v12a5,5 0 0 1 -5,5h-34.703125a0,0 0 0 1 0,0v-22a0,0 0 0 1 0,0z" style="stroke: rgb(0, 0, 0); fill: rgb(255, 255, 255); stroke-width: 0;"/><text x="7" y="15" style="font-family: &quot;Open Sans&quot;, &quot;--apple-system&quot;, &quot;Helvetica Neue&quot;, Helvetica, Arial, sans-serf; font-size: 10px; font-weight: 600; text-rendering: geometricPrecision;">input</text><title>float32[1,26,36,10]</title></g><line class="node" x1="69.390625" y1="0" x2="69.390625" y2="22" style="stroke: rgb(51, 51, 51); fill: none; stroke-width: 1px;"/><path class="node border" d="M5,0h99.09375a5,5 0 0 1 5,5v12a5,5 0 0 1 -5,5h-99.09375a5,5 0 0 1 -5,-5v-12a5,5 0 0 1 5,-5z" style="stroke: rgb(51, 51, 51); fill: none; stroke-width: 1px;"/></g></g></g><g id="node-1544945772333" class="node" transform="translate(171.875,182)" style="opacity: 1;"><g transform="translate(-54.546875,-11)"><g><g class="node-item node-item-operator node-item-operator-pool" transform="translate(0,0)"><path d="M5,0h64.390625a0,0 0 0 1 0,0v22a0,0 0 0 1 0,0h-64.390625a5,5 0 0 1 -5,-5v-12a5,5 0 0 1 5,-5z" style="stroke: rgb(0, 0, 0); fill: rgb(51, 85, 51); stroke-width: 0;"/><text x="7" y="15" style="font-family: &quot;Open Sans&quot;, &quot;--apple-system&quot;, &quot;Helvetica Neue&quot;, Helvetica, Arial, sans-serf; font-size: 10px; font-weight: 600; text-rendering: geometricPrecision; fill: rgb(255, 255, 255);">MaxPool2D</text></g><g class="node-item node-item-input" transform="translate(69.390625,0)"><path d="M0,0h34.703125a5,5 0 0 1 5,5v12a5,5 0 0 1 -5,5h-34.703125a0,0 0 0 1 0,0v-22a0,0 0 0 1 0,0z" style="stroke: rgb(0, 0, 0); fill: rgb(255, 255, 255); stroke-width: 0;"/><text x="7" y="15" style="font-family: &quot;Open Sans&quot;, &quot;--apple-system&quot;, &quot;Helvetica Neue&quot;, Helvetica, Arial, sans-serf; font-size: 10px; font-weight: 600; text-rendering: geometricPrecision;">input</text><title>float32[1,26,36,10]</title></g><line class="node" x1="69.390625" y1="0" x2="69.390625" y2="22" style="stroke: rgb(51, 51, 51); fill: none; stroke-width: 1px;"/><path class="node border" d="M5,0h99.09375a5,5 0 0 1 5,5v12a5,5 0 0 1 -5,5h-99.09375a5,5 0 0 1 -5,-5v-12a5,5 0 0 1 5,-5z" style="stroke: rgb(51, 51, 51); fill: none; stroke-width: 1px;"/></g></g></g><g id="node-1544945772334" class="node" transform="translate(171.875,267.5)" style="opacity: 1;"><g transform="translate(-61.8203125,-20.5)"><g><g class="node-item node-item-operator" transform="translate(0,0)"><path d="M5,0h43.58854166666667a0,0 0 0 1 0,0v22a0,0 0 0 1 0,0h-48.58854166666667a0,0 0 0 1 0,0v-17a5,5 0 0 1 5,-5z" style="stroke: rgb(0, 0, 0); fill: rgb(0, 0, 0); stroke-width: 0;"/><text x="15.013020833333334" y="15" style="font-family: &quot;Open Sans&quot;, &quot;--apple-system&quot;, &quot;Helvetica Neue&quot;, Helvetica, Arial, sans-serf; font-size: 10px; font-weight: 600; text-rendering: geometricPrecision; fill: rgb(255, 255, 255);">Mul</text></g><g class="node-item node-item-constant" id="initializer-pnet/PReLU1/Mul/x" transform="translate(48.58854166666667,0)"><path d="M0,0h38.02604166666667a0,0 0 0 1 0,0v22a0,0 0 0 1 0,0h-38.02604166666667a0,0 0 0 1 0,0v-22a0,0 0 0 1 0,0z" style="stroke: rgb(0, 0, 0); fill: rgb(238, 238, 238); stroke-width: 0;"/><text x="15.013020833333334" y="15" style="font-family: &quot;Open Sans&quot;, &quot;--apple-system&quot;, &quot;Helvetica Neue&quot;, Helvetica, Arial, sans-serf; font-size: 10px; font-weight: 600; text-rendering: geometricPrecision;">A</text><title>float32[10]</title></g><g class="node-item node-item-input" transform="translate(86.61458333333334,0)"><path d="M0,0h32.02604166666667a5,5 0 0 1 5,5v17a0,0 0 0 1 0,0h-37.02604166666667a0,0 0 0 1 0,0v-22a0,0 0 0 1 0,0z" style="stroke: rgb(0, 0, 0); fill: rgb(255, 255, 255); stroke-width: 0;"/><text x="15.013020833333334" y="15" style="font-family: &quot;Open Sans&quot;, &quot;--apple-system&quot;, &quot;Helvetica Neue&quot;, Helvetica, Arial, sans-serf; font-size: 10px; font-weight: 600; text-rendering: geometricPrecision;">B</text><title>float32[1,26,36,10]</title></g><g class="node-attribute" transform="translate(0,22)"><path d="M0,0h123.640625a0,0 0 0 1 0,0v14a5,5 0 0 1 -5,5h-113.640625a5,5 0 0 1 -5,-5v-14a0,0 0 0 1 0,0z" style="stroke: rgb(0, 0, 0); fill: rgb(255, 255, 255); stroke-width: 0;"/><text xml:space="preserve" x="4" y="12" style="font-family: &quot;Open Sans&quot;, &quot;--apple-system&quot;, &quot;Helvetica Neue&quot;, Helvetica, Arial, sans-serf; font-size: 7px; font-weight: normal; text-rendering: geometricPrecision;"><title>ActivationFunctionType</title><tspan style="font-weight: bold;">fused_activation_function</tspan><tspan> = RELU</tspan></text></g><line class="node" x1="48.58854166666667" y1="0" x2="48.58854166666667" y2="22" style="stroke: rgb(51, 51, 51); fill: none; stroke-width: 1px;"/><line class="node" x1="86.61458333333334" y1="0" x2="86.61458333333334" y2="22" style="stroke: rgb(51, 51, 51); fill: none; stroke-width: 1px;"/><line class="node" x1="0" y1="22" x2="123.640625" y2="22" style="stroke: rgb(51, 51, 51); fill: none; stroke-width: 1px;"/><path class="node border" d="M5,0h113.640625a5,5 0 0 1 5,5v31a5,5 0 0 1 -5,5h-113.640625a5,5 0 0 1 -5,-5v-31a5,5 0 0 1 5,-5z" style="stroke: rgb(51, 51, 51); fill: none; stroke-width: 1px;"/></g></g></g><g id="node-1544945772335" class="node" transform="translate(171.875,353)" style="opacity: 1;"><g transform="translate(-54.546875,-11)"><g><g class="node-item node-item-operator node-item-operator-pool" transform="translate(0,0)"><path d="M5,0h64.390625a0,0 0 0 1 0,0v22a0,0 0 0 1 0,0h-64.390625a5,5 0 0 1 -5,-5v-12a5,5 0 0 1 5,-5z" style="stroke: rgb(0, 0, 0); fill: rgb(51, 85, 51); stroke-width: 0;"/><text x="7" y="15" style="font-family: &quot;Open Sans&quot;, &quot;--apple-system&quot;, &quot;Helvetica Neue&quot;, Helvetica, Arial, sans-serf; font-size: 10px; font-weight: 600; text-rendering: geometricPrecision; fill: rgb(255, 255, 255);">MaxPool2D</text></g><g class="node-item node-item-input" transform="translate(69.390625,0)"><path d="M0,0h34.703125a5,5 0 0 1 5,5v12a5,5 0 0 1 -5,5h-34.703125a0,0 0 0 1 0,0v-22a0,0 0 0 1 0,0z" style="stroke: rgb(0, 0, 0); fill: rgb(255, 255, 255); stroke-width: 0;"/><text x="7" y="15" style="font-family: &quot;Open Sans&quot;, &quot;--apple-system&quot;, &quot;Helvetica Neue&quot;, Helvetica, Arial, sans-serf; font-size: 10px; font-weight: 600; text-rendering: geometricPrecision;">input</text><title>float32[1,26,36,10]</title></g><line class="node" x1="69.390625" y1="0" x2="69.390625" y2="22" style="stroke: rgb(51, 51, 51); fill: none; stroke-width: 1px;"/><path class="node border" d="M5,0h99.09375a5,5 0 0 1 5,5v12a5,5 0 0 1 -5,5h-99.09375a5,5 0 0 1 -5,-5v-12a5,5 0 0 1 5,-5z" style="stroke: rgb(51, 51, 51); fill: none; stroke-width: 1px;"/></g></g></g><g id="node-1544945772336" class="node" transform="translate(171.875,429)" style="opacity: 1;"><g transform="translate(-37.78125,-11)"><g><g class="node-item node-item-operator" transform="translate(0,0)"><path d="M5,0h27.5625a0,0 0 0 1 0,0v22a0,0 0 0 1 0,0h-27.5625a5,5 0 0 1 -5,-5v-12a5,5 0 0 1 5,-5z" style="stroke: rgb(0, 0, 0); fill: rgb(0, 0, 0); stroke-width: 0;"/><text x="7" y="15" style="font-family: &quot;Open Sans&quot;, &quot;--apple-system&quot;, &quot;Helvetica Neue&quot;, Helvetica, Arial, sans-serf; font-size: 10px; font-weight: 600; text-rendering: geometricPrecision; fill: rgb(255, 255, 255);">Mul</text></g><g class="node-item node-item-constant" id="initializer-pnet/PReLU1/Mul_1/x" transform="translate(32.5625,0)"><path d="M0,0h22a0,0 0 0 1 0,0v22a0,0 0 0 1 0,0h-22a0,0 0 0 1 0,0v-22a0,0 0 0 1 0,0z" style="stroke: rgb(0, 0, 0); fill: rgb(238, 238, 238); stroke-width: 0;"/><text x="7" y="15" style="font-family: &quot;Open Sans&quot;, &quot;--apple-system&quot;, &quot;Helvetica Neue&quot;, Helvetica, Arial, sans-serf; font-size: 10px; font-weight: 600; text-rendering: geometricPrecision;">A</text><title>float32[10]</title></g><g class="node-item node-item-input" transform="translate(54.5625,0)"><path d="M0,0h16a5,5 0 0 1 5,5v12a5,5 0 0 1 -5,5h-16a0,0 0 0 1 0,0v-22a0,0 0 0 1 0,0z" style="stroke: rgb(0, 0, 0); fill: rgb(255, 255, 255); stroke-width: 0;"/><text x="7" y="15" style="font-family: &quot;Open Sans&quot;, &quot;--apple-system&quot;, &quot;Helvetica Neue&quot;, Helvetica, Arial, sans-serf; font-size: 10px; font-weight: 600; text-rendering: geometricPrecision;">B</text><title>float32[1,26,36,10]</title></g><line class="node" x1="32.5625" y1="0" x2="32.5625" y2="22" style="stroke: rgb(51, 51, 51); fill: none; stroke-width: 1px;"/><line class="node" x1="54.5625" y1="0" x2="54.5625" y2="22" style="stroke: rgb(51, 51, 51); fill: none; stroke-width: 1px;"/><path class="node border" d="M5,0h65.5625a5,5 0 0 1 5,5v12a5,5 0 0 1 -5,5h-65.5625a5,5 0 0 1 -5,-5v-12a5,5 0 0 1 5,-5z" style="stroke: rgb(51, 51, 51); fill: none; stroke-width: 1px;"/></g></g></g><g id="node-1544945772337" class="node" transform="translate(171.875,505)" style="opacity: 1;"><g transform="translate(-37.78125,-11)"><g><g class="node-item node-item-operator" transform="translate(0,0)"><path d="M5,0h27.5625a0,0 0 0 1 0,0v22a0,0 0 0 1 0,0h-27.5625a5,5 0 0 1 -5,-5v-12a5,5 0 0 1 5,-5z" style="stroke: rgb(0, 0, 0); fill: rgb(0, 0, 0); stroke-width: 0;"/><text x="7" y="15" style="font-family: &quot;Open Sans&quot;, &quot;--apple-system&quot;, &quot;Helvetica Neue&quot;, Helvetica, Arial, sans-serf; font-size: 10px; font-weight: 600; text-rendering: geometricPrecision; fill: rgb(255, 255, 255);">Mul</text></g><g class="node-item node-item-constant" id="initializer-pnet/PReLU1/alpha" transform="translate(32.5625,0)"><path d="M0,0h22a0,0 0 0 1 0,0v22a0,0 0 0 1 0,0h-22a0,0 0 0 1 0,0v-22a0,0 0 0 1 0,0z" style="stroke: rgb(0, 0, 0); fill: rgb(238, 238, 238); stroke-width: 0;"/><text x="7" y="15" style="font-family: &quot;Open Sans&quot;, &quot;--apple-system&quot;, &quot;Helvetica Neue&quot;, Helvetica, Arial, sans-serf; font-size: 10px; font-weight: 600; text-rendering: geometricPrecision;">A</text><title>float32[10]</title></g><g class="node-item node-item-input" transform="translate(54.5625,0)"><path d="M0,0h16a5,5 0 0 1 5,5v12a5,5 0 0 1 -5,5h-16a0,0 0 0 1 0,0v-22a0,0 0 0 1 0,0z" style="stroke: rgb(0, 0, 0); fill: rgb(255, 255, 255); stroke-width: 0;"/><text x="7" y="15" style="font-family: &quot;Open Sans&quot;, &quot;--apple-system&quot;, &quot;Helvetica Neue&quot;, Helvetica, Arial, sans-serf; font-size: 10px; font-weight: 600; text-rendering: geometricPrecision;">B</text><title>float32[1,26,36,10]</title></g><line class="node" x1="32.5625" y1="0" x2="32.5625" y2="22" style="stroke: rgb(51, 51, 51); fill: none; stroke-width: 1px;"/><line class="node" x1="54.5625" y1="0" x2="54.5625" y2="22" style="stroke: rgb(51, 51, 51); fill: none; stroke-width: 1px;"/><path class="node border" d="M5,0h65.5625a5,5 0 0 1 5,5v12a5,5 0 0 1 -5,5h-65.5625a5,5 0 0 1 -5,-5v-12a5,5 0 0 1 5,-5z" style="stroke: rgb(51, 51, 51); fill: none; stroke-width: 1px;"/></g></g></g><g id="node-1544945772338" class="node" transform="translate(113.2109375,581)" style="opacity: 1;"><g transform="translate(-38.53125,-11)"><g><g class="node-item node-item-operator" transform="translate(0,0)"><path d="M5,0h29.0625a0,0 0 0 1 0,0v22a0,0 0 0 1 0,0h-29.0625a5,5 0 0 1 -5,-5v-12a5,5 0 0 1 5,-5z" style="stroke: rgb(0, 0, 0); fill: rgb(0, 0, 0); stroke-width: 0;"/><text x="7" y="15" style="font-family: &quot;Open Sans&quot;, &quot;--apple-system&quot;, &quot;Helvetica Neue&quot;, Helvetica, Arial, sans-serf; font-size: 10px; font-weight: 600; text-rendering: geometricPrecision; fill: rgb(255, 255, 255);">Add</text></g><g class="node-item node-item-input" transform="translate(34.0625,0)"><path d="M0,0h22a0,0 0 0 1 0,0v22a0,0 0 0 1 0,0h-22a0,0 0 0 1 0,0v-22a0,0 0 0 1 0,0z" style="stroke: rgb(0, 0, 0); fill: rgb(255, 255, 255); stroke-width: 0;"/><text x="7" y="15" style="font-family: &quot;Open Sans&quot;, &quot;--apple-system&quot;, &quot;Helvetica Neue&quot;, Helvetica, Arial, sans-serf; font-size: 10px; font-weight: 600; text-rendering: geometricPrecision;">A</text><title>float32[1,26,36,10]</title></g><g class="node-item node-item-input" transform="translate(56.0625,0)"><path d="M0,0h16a5,5 0 0 1 5,5v12a5,5 0 0 1 -5,5h-16a0,0 0 0 1 0,0v-22a0,0 0 0 1 0,0z" style="stroke: rgb(0, 0, 0); fill: rgb(255, 255, 255); stroke-width: 0;"/><text x="7" y="15" style="font-family: &quot;Open Sans&quot;, &quot;--apple-system&quot;, &quot;Helvetica Neue&quot;, Helvetica, Arial, sans-serf; font-size: 10px; font-weight: 600; text-rendering: geometricPrecision;">B</text><title>float32[1,26,36,10]</title></g><line class="node" x1="34.0625" y1="0" x2="34.0625" y2="22" style="stroke: rgb(51, 51, 51); fill: none; stroke-width: 1px;"/><line class="node" x1="56.0625" y1="0" x2="56.0625" y2="22" style="stroke: rgb(51, 51, 51); fill: none; stroke-width: 1px;"/><path class="node border" d="M5,0h67.0625a5,5 0 0 1 5,5v12a5,5 0 0 1 -5,5h-67.0625a5,5 0 0 1 -5,-5v-12a5,5 0 0 1 5,-5z" style="stroke: rgb(51, 51, 51); fill: none; stroke-width: 1px;"/></g></g></g><g class="node graph-input" transform="translate(113.2109375,11)" style="opacity: 1;"><g transform="translate(-32.9375,-11)"><g><g class="node-item graph-item-input" transform="translate(0,0)"><path d="M5,0h55.875a5,5 0 0 1 5,5v12a5,5 0 0 1 -5,5h-55.875a5,5 0 0 1 -5,-5v-12a5,5 0 0 1 5,-5z" style="stroke: rgb(0, 0, 0); fill: rgb(238, 238, 238); stroke-width: 0;"/><text x="7" y="15" style="font-family: &quot;Open Sans&quot;, &quot;--apple-system&quot;, &quot;Helvetica Neue&quot;, Helvetica, Arial, sans-serf; font-size: 10px; font-weight: 600; text-rendering: geometricPrecision;">pnet/input</text><title>float32[1,28,38,3]</title></g><path class="node border" d="M5,0h55.875a5,5 0 0 1 5,5v12a5,5 0 0 1 -5,5h-55.875a5,5 0 0 1 -5,-5v-12a5,5 0 0 1 5,-5z" style="stroke: rgb(51, 51, 51); fill: none; stroke-width: 1px;"/></g></g></g><g class="node" transform="translate(113.2109375,657)" style="opacity: 1;"><g transform="translate(-50,-11)"><g><g class="node-item graph-item-output" transform="translate(0,0)"><path d="M5,0h90a5,5 0 0 1 5,5v12a5,5 0 0 1 -5,5h-90a5,5 0 0 1 -5,-5v-12a5,5 0 0 1 5,-5z" style="stroke: rgb(0, 0, 0); fill: rgb(238, 238, 238); stroke-width: 0;"/><text x="7" y="15" style="font-family: &quot;Open Sans&quot;, &quot;--apple-system&quot;, &quot;Helvetica Neue&quot;, Helvetica, Arial, sans-serf; font-size: 10px; font-weight: 600; text-rendering: geometricPrecision;">pnet/PReLU1/Add</text><title>float32[1,26,36,10]</title></g><path class="node border" d="M5,0h90a5,5 0 0 1 5,5v12a5,5 0 0 1 -5,5h-90a5,5 0 0 1 -5,-5v-12a5,5 0 0 1 5,-5z" style="stroke: rgb(51, 51, 51); fill: none; stroke-width: 1px;"/></g></g></g></g></g></svg>